<?xml version="1.0" standalone="no"?>
<!DOCTYPE svg PUBLIC "-//W3C//DTD SVG 20010904//EN"
 "http://www.w3.org/TR/2001/REC-SVG-20010904/DTD/svg10.dtd">
<svg version="1.0" xmlns="http://www.w3.org/2000/svg"
 width="467.000000pt" height="350.000000pt" viewBox="0 0 467.000000 350.000000"
 preserveAspectRatio="xMidYMid meet">

<g transform="translate(0.000000,350.000000) scale(0.100000,-0.100000)"
fill="#000000" stroke="none">
<path d="M0 1750 l0 -1750 2335 0 2335 0 0 1750 0 1750 -2335 0 -2335 0 0
-1750z m3982 1631 l43 -60 263 0 262 -1 0 -463 0 -463 30 -29 30 -29 0 -471 0
-472 -60 -56 -60 -57 0 -550 0 -550 -657 -2 c-362 -2 -679 -2 -705 -1 -46 2
-49 0 -101 -57 l-54 -60 -985 0 -984 0 -29 30 -29 30 -383 0 -383 0 0 378 0
379 -60 57 -60 57 0 228 0 227 30 29 30 29 0 498 c0 485 -1 499 -20 518 -11
11 -25 20 -30 20 -6 0 -10 79 -9 218 l1 217 58 50 58 50 1 154 1 154 523 -7
522 -7 34 35 35 36 1322 0 1322 0 44 -59z m641 -3276 c4 -8 2 -17 -3 -20 -6
-4 -10 3 -10 14 0 25 6 27 13 6z"/>
</g>
</svg>
