<?xml version="1.0"?>
<svg version="1.1" id="圖層_1" xmlns="http://www.w3.org/2000/svg" x="0" y="0" viewBox="0 0 100 100" xml:space="preserve"><path d="M89.225 57.85a40.204 40.204 0 0 0 0-15.7l-10.358-.312a29.774 29.774 0 0 0-2.684-6.479l7.102-7.542a40.21 40.21 0 0 0-11.102-11.102l-7.542 7.102a29.823 29.823 0 0 0-6.479-2.684l-.312-10.358a40.204 40.204 0 0 0-15.7 0l-.312 10.358a29.774 29.774 0 0 0-6.479 2.684l-7.542-7.102a40.21 40.21 0 0 0-11.102 11.102l7.102 7.542a29.823 29.823 0 0 0-2.684 6.479l-10.358.312a40.204 40.204 0 0 0 0 15.7l10.358.312a29.774 29.774 0 0 0 2.684 6.479l-7.102 7.542a40.21 40.21 0 0 0 11.102 11.102l7.542-7.102a29.823 29.823 0 0 0 6.479 2.684l.312 10.358a40.204 40.204 0 0 0 15.7 0l.312-10.358a29.774 29.774 0 0 0 6.479-2.684l7.542 7.102a40.21 40.21 0 0 0 11.102-11.102l-7.102-7.542a29.823 29.823 0 0 0 2.684-6.479l10.358-.312zM50 72c-12.15 0-22-9.85-22-22s9.85-22 22-22 22 9.85 22 22-9.85 22-22 22z" fill="#333"/><path d="M71.9 44.805c-.393-.671-1.068-1.071-1.809-1.071H45.937l6.716-20.407a2.914 2.914 0 0 0-5.268-2.411L31.557 47.31l-3.458 5.626a2.095 2.095 0 0 0-.045 2.148 2.099 2.099 0 0 0 1.854 1.089h25.006l-6.529 20.452a2.91 2.91 0 0 0 1.609 3.558l.168.073a2.91 2.91 0 0 0 3.704-1.235l15.016-26.532 3.063-5.461c.379-.676.363-1.528-.045-2.223z" fill="#f8b26a"/><metadata xmlns:d="https://loading.io/stock/"><d:name>power</d:name><d:tags>electricity,supply,charge,config,setting,setup,power,gear</d:tags><d:license>pro</d:license><d:slug>ub4lok</d:slug></metadata></svg>