<svg width="100" height="100" viewBox="0 0 100 100" fill="none" xmlns="http://www.w3.org/2000/svg">
<path d="M89.2258 57.8498C90.2575 52.6673 90.2575 47.3323 89.2258 42.1498L78.8678 41.8378C78.2315 39.5799 77.3305 37.4052 76.1838 35.3588L83.2858 27.8168C80.3506 23.4226 76.578 19.65 72.1838 16.7148L64.6418 23.8168C62.5952 22.6704 60.4205 21.7695 58.1628 21.1328L57.8508 10.7748C52.6683 9.74304 47.3333 9.74304 42.1508 10.7748L41.8388 21.1328C39.5809 21.7691 37.4062 22.67 35.3598 23.8168L27.8178 16.7148C23.4235 19.65 19.651 23.4226 16.7158 27.8168L23.8178 35.3588C22.6714 37.4054 21.7705 39.5801 21.1338 41.8378L10.7758 42.1498C9.74401 47.3323 9.74401 52.6673 10.7758 57.8498L21.1338 58.1618C21.7701 60.4197 22.671 62.5944 23.8178 64.6408L16.7158 72.1828C19.651 76.577 23.4235 80.3496 27.8178 83.2848L35.3598 76.1828C37.4064 77.3292 39.5811 78.23 41.8388 78.8668L42.1508 89.2248C47.3333 90.2566 52.6683 90.2566 57.8508 89.2248L58.1628 78.8668C60.4206 78.2305 62.5954 77.3296 64.6418 76.1828L72.1838 83.2848C76.578 80.3496 80.3506 76.577 83.2858 72.1828L76.1838 64.6408C77.3301 62.5942 78.231 60.4195 78.8678 58.1618L89.2258 57.8498V57.8498ZM50.0008 71.9998C37.8508 71.9998 28.0008 62.1498 28.0008 49.9998C28.0008 37.8498 37.8508 27.9998 50.0008 27.9998C62.1508 27.9998 72.0008 37.8498 72.0008 49.9998C72.0008 62.1498 62.1508 71.9998 50.0008 71.9998Z" fill="#DD0000"/>
<path d="M88.811 42.6375C89.7291 47.5028 89.7291 52.4968 88.811 57.3621L78.8527 57.662L78.4861 57.6731L78.3865 58.0261C77.7605 60.2459 76.8747 62.3842 75.7475 64.3965L75.5683 64.7165L75.8198 64.9836L82.6476 72.2344C79.8564 76.3239 76.3249 79.8554 72.2354 82.6466L64.9846 75.8188L64.7174 75.5672L64.3973 75.7466C62.3853 76.8741 60.2471 77.7599 58.0271 78.3855L57.674 78.485L57.663 78.8517L57.363 88.8101C52.4978 89.7281 47.5037 89.7281 42.6385 88.8101L42.3385 78.8517L42.3275 78.4851L41.9745 78.3856C39.7546 77.7595 37.6164 76.8737 35.6041 75.7466L35.2841 75.5673L35.017 75.8188L27.7661 82.6466C23.6766 79.8554 20.1452 76.3239 17.3539 72.2344L24.1818 64.9836L24.4333 64.7164L24.254 64.3964C23.1264 62.3843 22.2407 60.2461 21.615 58.0262L21.5155 57.6731L21.1488 57.662L11.1905 57.3621C10.2724 52.4968 10.2724 47.5028 11.1905 42.6375L21.1488 42.3376L21.5154 42.3265L21.615 41.9735C22.2411 39.7537 23.1269 37.6154 24.254 35.6031L24.4333 35.2831L24.1818 35.016L17.3539 27.7652C20.1452 23.6757 23.6766 20.1442 27.7661 17.353L35.017 24.1808L35.2841 24.4323L35.6042 24.253C37.6162 23.1255 39.7545 22.2397 41.9744 21.614L42.3275 21.5145L42.3385 21.1479L42.6385 11.1895C47.5037 10.2715 52.4978 10.2715 57.363 11.1895L57.663 21.1479L57.674 21.5145L58.0271 21.614C60.2469 22.2401 62.3851 23.1259 64.3974 24.253L64.7175 24.4323L64.9846 24.1808L72.2354 17.353C76.3249 20.1442 79.8564 23.6757 82.6476 27.7652L75.8198 35.016L75.5682 35.2831L75.7476 35.6032C76.8751 37.6153 77.7609 39.7535 78.3865 41.9734L78.486 42.3265L78.8527 42.3376L88.811 42.6375ZM27.5008 49.9998C27.5008 62.4259 37.5746 72.4998 50.0008 72.4998C62.4269 72.4998 72.5008 62.4259 72.5008 49.9998C72.5008 37.5737 62.4269 27.4998 50.0008 27.4998C37.5746 27.4998 27.5008 37.5737 27.5008 49.9998Z" stroke="black" stroke-opacity="0.7"/>
<path d="M71.8996 44.8048C71.5066 44.1338 70.8316 43.7338 70.0906 43.7338H45.9366L52.6526 23.3268C52.8787 22.6453 52.8452 21.9043 52.5586 21.2459C52.272 20.5876 51.7524 20.0582 51.0995 19.7594C50.4466 19.4606 49.7064 19.4134 49.0208 19.6268C48.3352 19.8402 47.7525 20.2992 47.3846 20.9158L31.5566 47.3098L28.0986 52.9358C27.8978 53.2564 27.7877 53.6254 27.7798 54.0036C27.7718 54.3817 27.8665 54.755 28.0536 55.0838C28.2357 55.4156 28.5042 55.692 28.8305 55.8837C29.1569 56.0754 29.5291 56.1753 29.9076 56.1728H54.9136L48.3846 76.6248C48.1639 77.3118 48.2064 78.0562 48.5037 78.7137C48.801 79.3712 49.332 79.8947 49.9936 80.1828L50.1616 80.2558C50.8222 80.5457 51.567 80.5799 52.2514 80.3517C52.9359 80.1235 53.5111 79.6492 53.8656 79.0208L68.8816 52.4888L71.9446 47.0278C72.3236 46.3518 72.3076 45.4998 71.8996 44.8048V44.8048Z" fill="#D1CB28"/>
</svg>
